inDegrees=no
num_controls=7
num_derivatives=13
num_iterations=132
num_multipliers=7
num_parameters=0
num_slacks=7
num_states=26
objective=4.918750
objective_accelerations=0.104168
objective_balance=0.010489
objective_effort=0.079119
objective_height=4.609502
objective_ligament=0.115472
solver_duration=1453.669844
status=Solve_Succeeded
success=true
DataType=double
version=3
OpenSimVersion=4.4-2022-07-23-0e9fedc
endheader
time	/jointset/ground_pelvis/pelvis_tilt/value	/jointset/ground_pelvis/pelvis_tx/value	/jointset/ground_pelvis/pelvis_ty/value	/jointset/hip_l/hip_flexion_l/value	/jointset/hip_l/hip_adduction_l/value	/jointset/hip_l/hip_rotation_l/value	/jointset/back/lumbar_extension/value	/jointset/patellofemoral_l/patellar_flexion_l/value	/jointset/knee_l/knee_flexion_l/value	/jointset/knee_l/knee_adduction_l/value	/jointset/knee_l/knee_rotation_l/value	/jointset/ankle_l/ankle_angle_l/value	/jointset/subtalar_l/subtalar_angle_l/value	/jointset/ground_pelvis/pelvis_tilt/speed	/jointset/ground_pelvis/pelvis_tx/speed	/jointset/ground_pelvis/pelvis_ty/speed	/jointset/hip_l/hip_flexion_l/speed	/jointset/hip_l/hip_adduction_l/speed	/jointset/hip_l/hip_rotation_l/speed	/jointset/back/lumbar_extension/speed	/jointset/patellofemoral_l/patellar_flexion_l/speed	/jointset/knee_l/knee_flexion_l/speed	/jointset/knee_l/knee_adduction_l/speed	/jointset/knee_l/knee_rotation_l/speed	/jointset/ankle_l/ankle_angle_l/speed	/jointset/subtalar_l/subtalar_angle_l/speed	/forceset/tau_hip_flexion_l	/forceset/tau_hip_adduction_l	/forceset/tau_hip_rotation_l	/forceset/tau_knee_flexion_l	/forceset/tau_ankle_angle_l	/forceset/tau_subtalar_angle_l	/forceset/tau_lumbar_extension	lambda_cid13_p0	lambda_cid13_p1	lambda_cid13_p2	lambda_cid13_p3	lambda_cid13_p4	lambda_cid13_p5	lambda_cid14_p0	/jointset/ground_pelvis/pelvis_tilt/accel	/jointset/ground_pelvis/pelvis_tx/accel	/jointset/ground_pelvis/pelvis_ty/accel	/jointset/hip_l/hip_flexion_l/accel	/jointset/hip_l/hip_adduction_l/accel	/jointset/hip_l/hip_rotation_l/accel	/jointset/back/lumbar_extension/accel	/jointset/patellofemoral_l/patellar_flexion_l/accel	/jointset/knee_l/knee_flexion_l/accel	/jointset/knee_l/knee_adduction_l/accel	/jointset/knee_l/knee_rotation_l/accel	/jointset/ankle_l/ankle_angle_l/accel	/jointset/subtalar_l/subtalar_angle_l/accel	gamma_cid13_p0	gamma_cid13_p1	gamma_cid13_p2	gamma_cid13_p3	gamma_cid13_p4	gamma_cid13_p5	gamma_cid14_p0
1.5	0.0355898182040281	0.1828756505288842	0.8901085196158489	0.1494401538603529	-0.3305295052098509	-0.2380966765650762	-0.2390777217359026	0.3753058797294008	0.3753058797294416	-0.03341161810821797	-0.174466240925306	0.2855872916290621	0.1992950972308747	-0.4562109210546142	-0.03091943641465933	0.0721803253595328	0.01555687335179994	0.1207558670110709	-0.2727899156275583	0.5712282052694132	-0.9565584724915195	-0.9565584724914906	-0.03127301375025812	0.002613339557313364	-0.5580449716518798	-0.09479304119120319	0.02892720952459088	0.02466877289698078	-0.0006377655086682749	-0.1189118493338591	-0.07948361088156589	-0.006367713672934977	0.02273699523789525	-51.92204757693039	6.821724356823341	4.38254194625789	7.295511263982904	-456.2455283210996	-63.84830492510286	-24.60710803403433	-0.2703885349675456	-0.2004488783028355	-0.1410488263439703	0.164994063223678	0.101667822548589	-0.06635766608801183	0.1775861376509909	-0.6857581561872313	-0.6857581561872418	-0.2040103550487888	0.07444550955014184	-0.5897194287784499	-0.0518821466375728	-4.012821142106867e-08	-6.423455605335136e-08	2.333442964742354e-07	-1.795575794859085e-09	-5.233740680422051e-08	-2.928685120365784e-07	-2.804452210362087e-08
1.51	0.03101463563436854	0.1825564911496577	0.8908230638601536	0.1496042911440487	-0.3293168158694508	-0.2408279545205959	-0.2333571375232948	0.3657075469818475	0.3657075469818592	-0.03373390096889519	-0.1744365613811917	0.279978315837969	0.1983451124109001	-0.4587668708978373	-0.03290642594243284	0.07071117418430434	0.01726898511825106	0.1217679181192124	-0.2734254815976949	0.5728140913282916	-0.9629776330512301	-0.9629776330511999	-0.03317881550823694	0.003333578029227591	-0.5636698487595169	-0.09518417925775725	0.02864110329640569	0.02364581790670941	-0.0007167790143752794	-0.1166166415206502	-0.07788403887020418	-0.006702562997804992	0.0223113882499354	-51.37816392155148	6.797421136325914	4.471511239025404	7.021042804173349	-455.6035919381959	-63.98329744263257	-24.7431527622806	-0.2393956941062338	-0.1969233695921519	-0.1524603209287745	0.1740736707852155	0.09881876229915011	-0.05616216884971669	0.137907951437057	-0.6004216980829884	-0.6004216980827639	-0.18313989598192	0.07250428661533007	-0.5368307711605556	-0.02978384434190894	-4.00201773576359e-08	-8.80460730501409e-08	2.566789735101546e-07	-5.239750377003224e-09	-4.967356378634328e-08	-3.280433369774293e-07	-3.168604333496423e-08
1.52	0.02641565406925456	0.182217641999238	0.8915223941811425	0.149785500332897	-0.3280944370165009	-0.2435643893570915	-0.2276229308278118	0.3560489372902397	0.3560489372902506	-0.03407509680910755	-0.1743993411982479	0.2743154994919184	0.1973918053687242	-0.4609707201453231	-0.03485739065329079	0.06913754069641893	0.01897125438187936	0.1226937695214404	-0.2738212918227617	0.5739527018443991	-0.9686138612997407	-0.9686138612997091	-0.03505560965859654	0.004121467325273937	-0.5688130826433233	-0.09545748563141498	0.02835499706825902	0.0226228629164492	-0.0007957925199696019	-0.1143214337074226	-0.07628446685883436	-0.007037412322658086	0.02188578126199798	-50.83821023629128	6.775790518650924	4.557788000811717	6.76187227562361	-455.0100565860723	-64.11735743939619	-24.87261850753545	-0.1999684158201022	-0.1932439149197281	-0.1619452888753604	0.1630255626591154	0.08442788136588791	-0.01840651707406735	0.08813102909680672	-0.5291716939472323	-0.529171693947232	-0.1982088335249517	0.08797567437655239	-0.4933907840123604	-0.02831580805830967	-3.97251156875883e-08	-1.103343411665083e-07	2.76438476804745e-07	-8.290091709061905e-09	-4.79197341391059e-08	-3.589855756585952e-07	-3.482075743181155e-08
1.53	0.02179640828718032	0.1818594779783089	0.8922054820602364	0.1499836966538441	-0.3268632214748596	-0.2463036022040902	-0.2218795732016554	0.3463379500554167	0.3463379500553793	-0.03443485367773632	-0.1743539336305157	0.2686037130759035	0.1964363741880402	-0.4628178811258108	-0.03676788059515914	0.06746410161754592	0.02066736115564994	0.1235332482761816	-0.2739841189973715	0.5746439126094155	-0.9734445658297409	-0.9734445658297168	-0.03688933691656317	0.004964885416511915	-0.5734582967354143	-0.09561038332272614	0.02807386713892874	0.02162953581985945	-0.0008854153969885191	-0.1120547200000728	-0.07455840741440758	-0.007387242166295014	0.02146301179647611	-50.2581386883537	6.761260868393812	4.634229320120451	6.457000863691961	-454.4042919707553	-64.23626567875959	-24.99557702029207	-0.1680125481970451	-0.1888240594103468	-0.1724425854157804	0.172799615715352	0.08125046560021081	-0.009687781433226787	0.04837948360352549	-0.4391590953510059	-0.4391590953521225	-0.1749793412041836	0.08329547056393989	-0.4372120461914782	-0.006034761792061267	-3.923133718551243e-08	-1.310041573474271e-07	2.923993579991735e-07	-1.092198521290479e-08	-4.713279369817334e-08	-3.854306914388461e-07	-3.741698894825684e-08
1.54	0.017160506373494	0.1814824345528432	0.892871355674937	0.1501988333187235	-0.3256241026270587	-0.2490433367155906	-0.2161315507911695	0.3365828279226932	0.3365828279226728	-0.03481275275277698	-0.1742999377630954	0.2628480494540906	0.1954799624280179	-0.4643019464676563	-0.03863327156060947	0.06569468781776616	0.02235932316859554	0.1242744307537983	-0.2739256247231351	0.5748856587104082	-0.9774408408727246	-0.977440840872708	-0.03868405094539756	0.005839127270414172	-0.5775885238028655	-0.09565360149901914	0.02779273720959308	0.02063620872328833	-0.0009750382736961783	-0.1097880062927247	-0.07283234796997719	-0.007737072009910054	0.02104024233094189	-49.68167549941167	6.749597664075576	4.707661438105262	6.166947276038533	-453.8413253076952	-64.35186010262304	-25.11111631635291	-0.1273492880916574	-0.1842241196361223	-0.1811402330567075	0.162196610494122	0.06476862594099612	0.02585777269519083	-0.001761903707888038	-0.3622857965439289	-0.3622857965439288	-0.1904061876985083	0.09414042690940247	-0.3903933790843709	-0.006379905054681443	-3.564192604591012e-08	-1.342791483938182e-07	2.823837021261741e-07	-1.22923074710412e-08	-3.835672046997272e-08	-3.747447995614429e-07	-3.667530340515062e-08
1.55	0.01251173720933223	0.1810869837810476	0.8935190983571178	0.1504305900304428	-0.3243780909301054	-0.2517812348020975	-0.2103835192059378	0.3267917849123281	0.3267917849122978	-0.03520852879692831	-0.1742369098395611	0.2570536225620222	0.1945235956387312	-0.4653884870842971	-0.04044794867366771	0.06383985710481181	0.02399140825357059	0.1249129868526592	-0.2736143034999065	0.5746433132364807	-0.9806214340719718	-0.9806214340719598	-0.04045776748420322	0.006773894213901504	-0.5812053044237724	-0.09559852436997116	0.02752331011957318	0.01951756926715368	-0.001071269158995521	-0.1075725163320943	-0.07103166658065292	-0.00798194449334034	0.02061733710163367	-49.07117346275924	6.684705022088228	4.791505849559326	5.83224063066714	-453.2914716384965	-64.58899024552483	-25.21868264850277	-0.08980141844828507	-0.1787518209781332	-0.18975529472399	0.163618008107809	0.06112907020673784	0.03969237457910319	-0.04707263413585944	-0.2739911042142867	-0.2739911042149715	-0.168837701096684	0.09429323593670552	-0.3335954455599451	0.01462730845378563	-2.848580773698407e-08	-1.175122756982544e-07	2.42438557892879e-07	-1.220908025042891e-08	-2.037577685644199e-08	-3.212775292958756e-07	-3.208775690212656e-08
1.56	0.007854003645004987	0.180673653775354	0.8941478725713071	0.1506786483031346	-0.3231261476784957	-0.254514835060884	-0.2046402314284258	0.3169733269654287	0.3169733269654303	-0.03562163866928426	-0.1741643045650386	0.251225772855351	0.1935684147780486	-0.4660948265008613	-0.04220911834021258	0.06190099421947989	0.02561963536288909	0.1254607416854389	-0.2730660591789821	0.5739368971665236	-0.9829238281751858	-0.9829238281751783	-0.04215081658801194	0.007754597472123492	-0.5842730867233227	-0.09541641577815292	0.02725388302957107	0.01839892981104413	-0.001167500044119628	-0.1053570263714534	-0.06923098519131879	-0.008226816976737949	0.02019443187232713	-48.46301169444409	6.622946431168764	4.871739170175315	5.509436332104717	-452.761011648824	-64.82013137866518	-25.31804136484006	-0.0513090480763285	-0.1735226303334494	-0.1979466675322202	0.1614250153628088	0.04660837272476136	0.0732423922343807	-0.09457602291377125	-0.1866459773372942	-0.1866459773372965	-0.1742727006991255	0.103327689856331	-0.280593714813034	0.01902638749936351	-2.135497274450029e-08	-8.398581073123013e-08	1.852667118357078e-07	-9.558586489716731e-09	-4.186650196417079e-09	-2.424091715900319e-07	-2.479741812632935e-08
1.57	0.003191199763087198	0.1802429968036704	0.8947568688440517	0.1509427769730381	-0.3218693106275129	-0.2572416036306203	-0.1989063993687599	0.3071361612872666	0.3071361612872906	-0.03605159368670549	-0.1740816123016217	0.24536994366918	0.1926154825584075	-0.4663978328759381	-0.04391210707180836	0.05988658258629912	0.02720201207160507	0.1258899554329158	-0.2722469205247147	0.572749281576167	-0.9843573074602876	-0.9843573074602712	-0.04382610406370219	0.008789975924355055	-0.5867972091227283	-0.09515045434438534	0.02697758651222303	0.01738311737493327	-0.001268886493610521	-0.1031725351425127	-0.06733070460109296	-0.008545813568958845	0.01978625759822951	-47.83232257992865	6.599707148168526	4.934098473831607	5.159631640359473	-452.2656864795774	-64.978101642864	-25.40896880722036	-0.009581657782657847	-0.1671617209318931	-0.2049365138472163	0.1560284942626528	0.03855734034441774	0.09235221777796947	-0.1428893056631388	-0.0988973076836631	-0.09889730768233705	-0.1620364448404412	0.1045702165142568	-0.2239918615514346	0.0333096383478159	-1.425574189756936e-08	-2.950985542488055e-08	1.065614884986917e-07	-3.699009553879726e-09	9.762705271725593e-09	-1.31789454583843e-07	-1.412858900956572e-08
1.58	-0.001472591227691731	0.1797956149993991	0.895345371379937	0.1512226063091558	-0.3206086855461381	-0.2599589602906627	-0.1931868504607104	0.2972892211355572	0.297289221135562	-0.03649787751365841	-0.1739883807949401	0.239491739187206	0.1916657956765105	-0.466292248273388	-0.0455540848577597	0.05780224684764971	0.02875976860578753	0.1262183477638081	-0.2711836772402437	0.5710802668431464	-0.9848787228888716	-0.9848787228888464	-0.0454165784928531	0.009862446120893579	-0.5887481458840187	-0.09476734822932391	0.02670128999485291	0.01636730493880399	-0.001370272943266133	-0.1009880439135848	-0.06543042401087681	-0.008864810161205083	0.01937808332412503	-47.20311747649331	6.578684821254144	4.993869218479395	4.816887164039459	-451.7806595357122	-65.13494699020642	-25.49124806020362	0.03040914744907608	-0.1613204412045602	-0.2119314886259483	0.1565009804560982	0.02644408940784826	0.1220633182751101	-0.1908558514465377	-0.004233206033741535	-0.0042332060337415	-0.1573100913912669	0.1107460387177245	-0.1659565871900277	0.0424553237581287	-9.938047390073852e-09	-1.932616637457317e-09	6.472864434794189e-08	-9.082149249297642e-10	1.98963179871236e-08	-7.282488496663065e-08	-8.620034491046145e-09
